<svg viewBox="0 0 22 30" xmlns="http://www.w3.org/2000/svg"><path d="m16.68 20.73c-.19-.51-.35-1-.49-1.55a10.16 10.16 0 0 1 -.35-1.93 5.48 5.48 0 0 0 -3.16-4.75.45.45 0 0 0 0-.2c0-1.25-.41-2-1.72-2a1.5 1.5 0 0 0 -1.68 1.7v.26a.45.45 0 0 0 0 .2 5.48 5.48 0 0 0 -3.16 4.75 10.16 10.16 0 0 1 -.35 1.93c-.14.52-.3 1-.49 1.55a16.3 16.3 0 0 1 -1.45 3 1.82 1.82 0 0 0 -.22 1.39 1.81 1.81 0 0 0 1.43 1.36 32.55 32.55 0 0 0 3.75.48 1.94 1.94 0 0 0 2.21 2.13c1.48 0 2.3-1 2.15-2.12a30.4 30.4 0 0 0 3.76-.48 1.81 1.81 0 0 0 1.43-1.36 1.82 1.82 0 0 0 -.22-1.39 16.3 16.3 0 0 1 -1.44-2.97zm-6.4-8.67c0-.59.1-.72.72-.72s.71.18.72.88a4.37 4.37 0 0 0 -.72-.06 4.28 4.28 0 0 0 -.72.06zm.72 16c-.85 0-1.27-.47-1.15-1.07h1.15s.76 0 1.14 0c.13.61-.26 1.06-1.14 1.06zm-1-21.06v-5a1 1 0 1 1 2 0v5a1 1 0 1 1 -2 0zm10.28 1.29-3 3a1 1 0 0 1 -.71.3 1 1 0 0 1 -.7-1.71l2.94-2.95a1 1 0 0 1 1.42 0 1 1 0 0 1 .05 1.36zm-15.61 3-2.95-3a1 1 0 0 1 0-1.41 1 1 0 0 1 1.42 0l2.94 3a1 1 0 0 1 0 1.41 1 1 0 0 1 -.7.29 1 1 0 0 1 -.71-.34z" fill="#d84e55"/></svg>